<svg xmlns="http://www.w3.org/2000/svg" width="64" height="64" viewBox="0 0 64 64"><title>skol</title><defs><linearGradient id="ember" x1="0" y1="0" x2="1" y2="1"><stop offset="0" stop-color="#ffc278"/><stop offset="0.55" stop-color="#f08a3c"/><stop offset="1" stop-color="#d96420"/></linearGradient></defs><rect width="64" height="64" rx="14" fill="#1b1410"/><path d="M17 12 C14 24 15.5 37 23 46 C28.5 52.5 37.5 56 49 54.5 C50.5 54.3 51 53 49.6 52.4 C41 49 35 44.5 30.8 38 C26 30.5 24.5 21 26.5 12.6 C26.8 11.3 25.6 10.5 24.6 11 Z" fill="url(#ember)"/><path d="M19.5 21.5 C23 23.5 27 24 30.5 23.4" stroke="#1b1410" stroke-width="2.6" stroke-linecap="round" fill="none"/><circle cx="42" cy="17" r="2.4" fill="#ffc278"/><circle cx="49" cy="26" r="1.7" fill="#f08a3c" opacity="0.85"/><circle cx="38" cy="9" r="1.3" fill="#ffd9a8" opacity="0.9"/></svg>
